<svg id="svg" version="1.1" width="1000" height="664" xmlns="http://www.w3.org/2000/svg" xmlns:xlink="http://www.w3.org/1999/xlink" style="display: block;"><g id="svgg"><path id="path0" d="M142.400 125.400 L 142.400 207.200 176.000 207.200 L 209.600 207.200 209.600 197.400 L 209.600 187.600 186.600 187.600 L 163.600 187.600 163.600 125.600 L 163.600 63.600 186.600 63.600 L 209.600 63.600 209.600 53.600 L 209.600 43.600 176.000 43.600 L 142.400 43.600 142.400 125.400 M251.200 53.600 L 251.200 63.600 274.200 63.600 L 297.200 63.600 297.200 125.600 L 297.200 187.600 274.200 187.600 L 251.200 187.600 251.200 197.400 L 251.200 207.200 284.200 207.200 L 317.200 207.200 317.200 125.400 L 317.200 43.600 284.200 43.600 L 251.200 43.600 251.200 53.600 " stroke="none" fill="#000000" fill-rule="evenodd"></path><path id="path1" d="M6.400 1.178 C 13.850 2.721,17.639 4.005,23.800 7.078 C 31.248 10.792,45.200 21.780,45.200 23.933 C 45.200 24.122,45.577 24.618,46.039 25.035 C 50.856 29.395,57.934 45.097,59.406 54.694 C 59.736 56.842,60.172 59.500,60.376 60.600 C 60.981 63.868,60.670 202.573,60.048 207.000 C 59.280 212.461,57.253 220.738,56.425 221.791 C 56.249 222.016,55.872 222.920,55.589 223.800 C 54.424 227.415,48.718 237.197,46.176 239.939 C 45.639 240.518,45.200 241.121,45.200 241.278 C 45.200 241.918,37.963 248.826,34.806 251.200 C 34.075 251.750,32.849 252.695,32.083 253.300 C 31.317 253.905,30.548 254.400,30.374 254.400 C 30.200 254.400,29.819 254.627,29.529 254.905 C 29.238 255.182,28.550 255.634,28.000 255.909 C 27.450 256.184,25.836 257.032,24.414 257.792 C 22.991 258.552,21.281 259.387,20.614 259.647 C 19.946 259.907,18.860 260.342,18.200 260.613 C 13.452 262.564,4.118 264.821,0.700 264.845 C 0.315 264.848,0.000 265.020,0.000 265.228 C -0.000 265.660,341.974 265.536,343.600 265.104 C 344.150 264.958,346.040 264.549,347.800 264.197 C 352.997 263.155,361.018 260.231,364.492 258.111 C 365.313 257.610,366.072 257.200,366.180 257.200 C 366.419 257.200,372.121 253.551,372.400 253.220 C 372.510 253.089,373.050 252.696,373.600 252.346 C 376.604 250.438,385.168 241.901,386.414 239.574 C 386.623 239.183,387.030 238.623,387.319 238.331 C 387.907 237.735,391.600 232.083,391.600 231.780 C 391.600 231.672,392.011 230.913,392.514 230.092 C 393.612 228.299,396.224 222.263,396.624 220.594 C 396.781 219.937,397.046 219.220,397.213 219.000 C 397.559 218.543,399.144 211.288,399.616 208.000 C 400.066 204.869,400.057 60.789,399.607 57.600 C 399.085 53.908,397.704 47.742,397.179 46.761 C 396.934 46.304,396.650 45.465,396.547 44.896 C 396.297 43.518,393.660 37.381,392.514 35.508 C 392.011 34.687,391.600 33.928,391.600 33.820 C 391.600 33.581,387.951 27.879,387.620 27.600 C 387.489 27.490,387.096 26.950,386.746 26.400 C 384.868 23.443,376.264 14.812,373.974 13.586 C 373.583 13.377,373.023 12.970,372.731 12.681 C 372.135 12.093,366.483 8.400,366.180 8.400 C 366.072 8.400,365.313 7.990,364.492 7.489 C 359.763 4.604,350.509 1.636,342.400 0.404 C 341.190 0.220,263.880 0.067,170.600 0.065 L 1.000 0.060 6.400 1.178 M209.600 53.600 L 209.600 63.600 186.600 63.600 L 163.600 63.600 163.600 125.600 L 163.600 187.600 186.600 187.600 L 209.600 187.600 209.600 197.400 L 209.600 207.200 176.000 207.200 L 142.400 207.200 142.400 125.400 L 142.400 43.600 176.000 43.600 L 209.600 43.600 209.600 53.600 M317.200 125.400 L 317.200 207.200 284.200 207.200 L 251.200 207.200 251.200 197.400 L 251.200 187.600 274.200 187.600 L 297.200 187.600 297.200 125.600 L 297.200 63.600 274.200 63.600 L 251.200 63.600 251.200 53.600 L 251.200 43.600 284.200 43.600 L 317.200 43.600 317.200 125.400 " stroke="none" fill="#ffffff" fill-rule="evenodd"></path></g></svg>